<?xml version="1.0" encoding="UTF-8" standalone="no"?>
<svg
   xmlns="http://www.w3.org/2000/svg"
   xmlns:svg="http://www.w3.org/2000/svg"
   xmlns:oryx="http://www.b3mn.org/oryx"
   xmlns:xlink="http://www.w3.org/1999/xlink"

   width="102"
   height="82"
   version="1.0">
  <defs></defs>
  <oryx:magnets>
  	<oryx:magnet oryx:cx="1" oryx:cy="20" oryx:anchors="left" />
  	<oryx:magnet oryx:cx="1" oryx:cy="40" oryx:anchors="left" />
  	<oryx:magnet oryx:cx="1" oryx:cy="60" oryx:anchors="left" />

  	<oryx:magnet oryx:cx="25" oryx:cy="79" oryx:anchors="bottom" />
  	<oryx:magnet oryx:cx="50" oryx:cy="79" oryx:anchors="bottom" />
  	<oryx:magnet oryx:cx="75" oryx:cy="79" oryx:anchors="bottom" />

  	<oryx:magnet oryx:cx="99" oryx:cy="20" oryx:anchors="right" />
  	<oryx:magnet oryx:cx="99" oryx:cy="40" oryx:anchors="right" />
  	<oryx:magnet oryx:cx="99" oryx:cy="60" oryx:anchors="right" />

  	<oryx:magnet oryx:cx="25" oryx:cy="1" oryx:anchors="top" />
  	<oryx:magnet oryx:cx="50" oryx:cy="1" oryx:anchors="top" />
  	<oryx:magnet oryx:cx="75" oryx:cy="1" oryx:anchors="top" />

  	<oryx:magnet oryx:cx="50" oryx:cy="40" oryx:default="yes" />
  </oryx:magnets>
  <g pointer-events="fill" oryx:minimumSize="50 40">
  	<defs>
		<radialGradient id="background" cx="10%" cy="10%" r="100%" fx="10%" fy="10%">
			<stop offset="0%" stop-color="#ffffff" stop-opacity="1"/>
			<stop id="fill_el" offset="100%" stop-color="#ffffcc" stop-opacity="1"/>
		</radialGradient>
	</defs>

	<rect id="text_frame" oryx:anchors="bottom top right left" x="1" y="1" width="94" height="79" rx="10" ry="10" stroke="none" stroke-width="0" fill="none" />
	<rect id="bg_frame" oryx:resize="vertical horizontal" x="0" y="0" width="100" height="80" rx="10" ry="10" stroke="black" stroke-width="1" fill="url(#background) #ffffcc" />
		<text
			font-size="12"
			id="text_name"
			x="50"
			y="40"
			oryx:align="middle center"
			oryx:fittoelem="text_frame"
			stroke="black">
		</text>
        <g id="bamboo" style="display:inline">
             <path
                d="M 12.064869,17.4576 C 11.219672,17.2882 10.233608,17.0933 9.8736171,17.0244 9.4359878,16.9406 9.219087,16.8474 9.219087,16.7428 9.219087,16.4889 11.621588,12.7597 11.78516,12.7597 11.875018,12.7597 11.986872,12.9947 12.064869,13.3476 12.136354,13.6709 12.246011,13.9354 12.308551,13.9354 12.472963,13.9354 13.327006,13.3642 13.649893,13.0383 13.801673,12.8851 13.977385,12.7597 14.040367,12.7597 14.280304,12.7597 15.573631,13.6361 15.896498,14.0175 16.437562,14.6566 16.439505,14.6417 15.769112,15.0018 14.948239,15.4428 13.54383,16.4789 13.547844,16.6405 13.549585,16.7106 13.701826,16.9551 13.886159,17.1839 14.454038,17.8886 14.317352,17.9091 12.064869,17.4576 z"
                id="path3165"
                style="fill:#000080" />
             <path
                d="M 5.7562332,16.0641 C 5.197719,15.6531 4.4934395,15.1864 4.1911684,15.027 3.8888972,14.8676 3.6424065,14.7131 3.6434111,14.6837 3.6444157,14.6543 3.916764,14.5199 4.2486305,14.3851 4.580496,14.2503 5.1670054,13.9007 5.5519827,13.6082 L 6.2519439,13.0764 6.7964067,13.4668 C 7.0958622,13.6816 7.5029302,13.9299 7.7010036,14.0186 8.0303151,14.1662 8.0555838,14.2131 7.9962464,14.5654 7.8441764,15.4687 7.1490987,16.8352 6.8512945,16.8164 6.807525,16.8137 6.3147473,16.4751 5.7562332,16.0641 z"
                id="path3163"
                style="fill:#000080" />
             <path
                d="M 2.6761163,12.9468 C 2.5734507,12.5205 2.3089399,11.747 2.0883152,11.2276 1.8676905,10.7084 1.7076617,10.2643 1.7326974,10.2408 1.7577313,10.2173 1.9541066,10.2467 2.1690846,10.3061 2.3840635,10.3655 3.0703825,10.4064 3.6942366,10.397 L 4.8285179,10.3798 4.9568036,10.8482 C 5.0273601,11.1059 5.2024071,11.5317 5.3457973,11.7943 L 5.6065063,12.272 5.107713,12.6859 C 4.5919171,13.114 3.3866554,13.7215 3.0528624,13.7216 2.9099327,13.7217 2.8164781,13.5294 2.6761163,12.9468 z"
                id="path3139"
                style="fill:#000080" />
             <path
                d="M 16.418234,13.1233 C 16.089167,12.8063 15.539134,12.3982 15.195936,12.2163 14.647749,11.9258 14.58635,11.8604 14.690549,11.6775 14.755784,11.5631 14.903003,11.1225 15.017703,10.6983 L 15.226249,9.9272 15.779897,9.8379 C 16.351183,9.7458 17.713041,9.8941 18.105172,10.0912 18.302534,10.1903 18.29894,10.2243 18.031099,10.793 17.876274,11.1217 17.597602,11.899 17.411825,12.5203 17.226049,13.1415 17.061108,13.6611 17.045291,13.6748 17.029474,13.6885 16.747298,13.4403 16.418234,13.1233 z"
                id="path3137"
                style="fill:#000080" />
             <path
                d="M 2.2753768,9.3212 C 2.056252,9.2632 1.8337769,9.1764 1.780989,9.1285 1.7282011,9.0806 1.8660097,8.6155 2.0872308,8.0948 2.3084519,7.5741 2.5734507,6.7993 2.6761163,6.3731 2.7787819,5.9469 2.8844209,5.5982 2.9108694,5.5982 2.9373179,5.5982 3.1438124,5.7903 3.3697463,6.0252 3.7159851,6.385 4.9498999,7.2369 5.2699572,7.3372 5.3226231,7.3536 5.2657215,7.6065 5.1435083,7.8989 5.0212941,8.1914 4.8857782,8.6304 4.8423619,8.8745 4.7834493,9.2057 4.7005065,9.3341 4.5154238,9.3808 4.133697,9.4769 2.7209455,9.4394 2.2753768,9.3212 z"
                id="path3135"
                style="fill:#000080" />
             <path
                d="M 17.471858,8.8923 C 17.22143,8.8346 16.595555,8.8099 16.081026,8.8375 15.199602,8.8847 15.141712,8.8744 15.079655,8.6592 15.04343,8.5335 14.879757,8.1055 14.715939,7.708 L 14.418086,6.9852 14.686262,6.7172 C 15.185403,6.2183 16.865567,5.3674 17.035815,5.5272 17.058192,5.5482 17.207242,6.0378 17.367038,6.6151 17.526834,7.1924 17.804667,7.9694 17.984445,8.3416 18.347306,9.0931 18.346722,9.0938 17.471858,8.8923 z"
                id="path3133"
                style="fill:#000080" />
             <path
                d="M 5.349889,6.2203 C 4.7090533,5.8766 3.6384634,4.9275 3.6453313,4.7092 3.6475203,4.6396 4.0707634,4.3293 4.5858712,4.0196 5.10098,3.7099 5.7498745,3.2725 6.0278605,3.0477 L 6.5332885,2.639 6.1687186,2.2237 C 5.8320613,1.8402 5.6872381,1.4286 5.8895216,1.4302 5.9364765,1.4306 6.9192483,1.623 8.073458,1.8577 9.2276677,2.0925 10.258685,2.2846 10.364604,2.2846 10.470524,2.2846 10.614634,2.3496 10.684847,2.429 10.815684,2.5771 10.823889,2.5626 8.9049672,5.5748 8.5573669,6.1204 8.2192711,6.5501 8.153642,6.5295 8.0430921,6.4949 8.0000427,6.3763 7.8054426,5.57 7.7344576,5.2758 7.7325622,5.2753 7.3773225,5.4478 7.181071,5.543 6.7826847,5.8299 6.4920181,6.0852 L 5.9635341,6.5494 5.349889,6.2203 z"
                id="path3131"
                style="fill:#000080" />
             <path
                d="M 13.146267,5.8014 C 12.833231,5.575 12.430549,5.3325 12.251418,5.2624 11.952408,5.1453 11.930331,5.0991 11.981937,4.6984 12.060905,4.0854 12.484172,3.0894 12.829539,2.704 L 13.121197,2.3786 13.475226,2.6888 C 13.981942,3.1327 15.10493,3.9106 15.73593,4.2548 16.033315,4.4169 16.276437,4.5811 16.276202,4.6196 16.275968,4.6581 16.055438,4.7746 15.786138,4.8786 15.279623,5.0742 14.900977,5.3059 14.152142,5.8788 L 13.715424,6.2129 13.146267,5.8014 z"
                id="path3127"
                style="fill:#000080" />

        </g>
    </g>
</svg>